<?xml version="1.0" encoding="utf-8"?>
<!-- Generator: Adobe Illustrator 19.0.0, SVG Export Plug-In . SVG Version: 6.00 Build 0)  -->
<svg version="1.1" id="Capa_1" xmlns="http://www.w3.org/2000/svg" xmlns:xlink="http://www.w3.org/1999/xlink" x="0px" y="0px"
	 viewBox="0 0 300 131.6" enable-background="new 0 0 300 131.6" xml:space="preserve">
<g id="XMLID_688_">
	<g id="XMLID_699_">
		<path id="XMLID_707_" fill="#4F1F39" d="M54.2,61.9c3.1,1.5,4.8,1.6,8.2,1.3c-4.7-2.8-7.3-9-7.8-14.3c-0.3-2.4,0.3-4.8,0.5-7.2
			c0.2-1.9,0.7-3.4,0.8-6.1L36.9,23.6c0,0.1,0,0.2-0.1,0.3c0-0.1,0-0.2-0.1-0.3L18.8,35.7c-0.1,2.5,0.1,4.1,0.3,5.9
			c0.2,2.4,0.3,4.9,0,7.3c-0.6,5.2-3.2,11.5-7.8,14.3c3.4,0.4,5.1,0.2,8.2-1.3c-0.1,3.1-0.9,6.1-2.4,8.9c-0.8,1.6-6.2,6.8-5.7,7.9
			c0.4,1.1,4.1,2.1,5,2.3c1.5,0.4,3.1,0.6,4.6,1.2c1.4,0.5,2.6,1.4,4.1,1.7c1.6,0.3,3.1-0.4,4.7-0.5c1.3-0.1,2.6,0,3.8,0
			c0.1,0,0.3,0,0.4,0c-0.4,0.3-0.8,0.4-1.4,0.5c1.4,0,2.8-0.1,4.2-0.3c1.4,0.2,2.8,0.3,4.2,0.3c-0.6-0.1-1-0.2-1.4-0.5
			c0.1,0,0.3,0,0.4,0c1.3,0,2.6-0.1,3.8,0c1.6,0.1,3.1,0.7,4.7,0.5c1.5-0.2,2.7-1.2,4.1-1.7c1.5-0.6,3.1-0.8,4.6-1.2
			c0.9-0.3,4.6-1.3,5-2.3c0.5-1.1-4.9-6.2-5.7-7.9C55.1,68,54.3,65,54.2,61.9z M36.6,62.9c0.1-0.5,0.1-0.9,0.2-1.4
			c0.1,0.5,0.2,0.9,0.2,1.4c0.5,4,0.3,8.1-0.2,12C36.3,70.9,36.2,66.8,36.6,62.9z"/>
		<path id="XMLID_706_" fill="#FFC65E" d="M53.1,42.4c-0.1,0-0.1,0-0.2,0c-1.2-10-7.9-17.8-16-17.8c-8.2,0-14.9,7.8-16,17.8
			c-1.3,0.4-2.3,2.1-2.3,4.2c0,2.2,1.2,4.1,2.7,4.2c1.1,5.2,3.7,9.5,7.1,12.3v4.9h16.2l0-4.9c3.9-2.7,6.9-6.7,8-12.3
			c0.2,0.1,0.4,0.1,0.6,0.1c1.6,0,2.9-1.9,2.9-4.2C56,44.3,54.7,42.4,53.1,42.4z"/>
		<path id="XMLID_705_" fill="#FFFFF9" d="M49.6,66.3c0,0-0.6-4.6-3.2-3.2c-4.7,2.6-8.6,3.7-9.6,3.9c-1-0.2-4.6-1-9.3-3.6
			C25,62,25,66.3,25,66.3l12.3,15.1L49.6,66.3z"/>
		<polygon id="XMLID_704_" fill="#444443" points="71.3,80.9 49.6,66.3 37.3,81 25,66.3 3.3,80.9 3.3,98.1 71.4,98.1 		"/>
		<path id="XMLID_703_" fill="#4F1F39" d="M21,31.3c-2.6,2.4-0.7,6.9,1.6,8.7c2.9,2.2,7,2.2,10.5,2c3.8-0.2,8.1-0.5,11.5,1.3
			c1.3,0.7,2.5,1.7,3.7,2.5c1,0.7,1.9,2.2,3,2.6c0.6-0.7,0.7-1.4,1-2.3c0.3-0.9,0.5-1.9,0.8-2.8c0.7-2.1,0.7-4.4,0.6-6.6
			c-0.2-3.7-1.9-8-4.3-10.9c-1.3-1.7-3.5-3.2-5.5-3.9c-1.4-0.5-4.7-1.8-5.9-0.5L21,31.3z"/>
		<path id="XMLID_702_" fill="#444443" d="M37.3,9.6l-32.9,12v2.9l14.4,3.9v8.7c0,0,5.7-1.6,18.5-2.5c12.4,0.7,18.5,2.5,18.5,2.5
			v-8.7l14.4-3.9v-2.9L37.3,9.6z"/>
		<path id="XMLID_700_" fill="#5F5F5E" d="M66.9,44.3c0.6-0.1,1-0.6,1-1.2c0-0.7-0.5-1.2-1.2-1.2h-0.2V19.5c0-0.9-0.8-1.7-1.7-1.7
			c-0.9,0-1.7,0.8-1.7,1.7v22.3h0c-0.7,0-1.2,0.5-1.2,1.2c0,0.5,0.3,1,0.8,1.2c-1.7,3.6-2.7,6.2-2.3,6.6c3.2,2.8,5.6,2.8,8.8,0
			C69.6,50.5,68.6,47.9,66.9,44.3z"/>
	</g>
	<g id="XMLID_689_" opacity="0.28">
		<path id="XMLID_696_" fill="#4F1F39" d="M37.4,83.9c1.4,0.2,2.3,0,3.7,0c-0.6-0.1-1-0.2-1.4-0.5c0.1,0,0.3,0,0.4,0
			c1.3,0,2.6-0.1,3.8,0c1.6,0.1,3.1,0.7,4.7,0.5c1.5-0.2,2.7-1.2,4.1-1.7c1.5-0.6,3.1-0.8,4.6-1.2c0.9-0.3,4.6-1.3,5-2.3
			c0.5-1.1-4.9-6.2-5.7-7.9c-1.4-2.8-2.3-5.8-2.4-8.9c3.1,1.5,4.8,1.6,8.2,1.3c-4.7-2.8-7.3-9-7.8-14.3c-0.3-2.4,0.3-4.8,0.5-7.2
			c0.2-1.9,0.7-3.4,0.8-6.1l-18.8-12c0,0.1,0,0.2,0,0.3"/>
		<path id="XMLID_695_" fill="#FFC65E" d="M36.9,68h7.7l0-4.9c3.9-2.7,6.9-6.7,8-12.3c0.2,0.1,0.4,0.1,0.6,0.1
			c1.6,0,2.9-1.9,2.9-4.2c0-2.3-1.3-4.2-2.9-4.2c-0.1,0-0.1,0-0.2,0c-1.2-10-7.6-17.7-15.7-17.7"/>
		<path id="XMLID_694_" fill="#FFFFF9" d="M37.4,81.4l12.3-15.1c0,0-0.6-4.6-3.2-3.2c-4.7,2.6-8.6,3.7-9.6,3.9L37.4,81.4z"/>
		<polygon id="XMLID_693_" fill="#444443" points="37.4,98 71.4,98 71.3,80.8 49.7,66.3 37.4,80.9 		"/>
		<path id="XMLID_692_" fill="#4F1F39" d="M37,41.7c3.8-0.2,4.3-0.4,7.7,1.5c1.3,0.7,2.5,1.7,3.7,2.5c1,0.7,1.9,2.2,3,2.6
			c0.6-0.7,0.7-1.4,1-2.3c0.3-0.9,0.5-1.9,0.8-2.8c0.7-2.1,0.7-4.4,0.6-6.6c-0.2-3.7-1.9-8-4.3-10.9c-1.3-1.7-3.5-3.2-5.5-3.9
			c-1.4-0.5-5.4-0.6-6.7,0.7L37,41.7z"/>
		<path id="XMLID_691_" fill="#444443" d="M36.9,34.8c12.4,0.7,18.8,2.3,18.8,2.3v-8.7l14.4-3.9v-2.9l-32.9-12"/>
		<path id="XMLID_690_" fill="#5F5F5E" d="M66.9,44.2c0.6-0.1,1-0.6,1-1.2c0-0.7-0.5-1.2-1.2-1.2h-0.2V19.5c0-0.9-0.8-1.7-1.7-1.7
			c-0.9,0-1.7,0.8-1.7,1.7v22.3h0c-0.7,0-1.2,0.5-1.2,1.2c0,0.5,0.3,1,0.8,1.2c-1.7,3.6-2.7,6.2-2.3,6.6c3.2,2.8,5.6,2.8,8.8,0
			C69.6,50.4,68.6,47.8,66.9,44.2z"/>
	</g>
</g>
<g id="XMLID_710_">
	<rect id="XMLID_720_" x="9" y="75.1" fill="#722402" width="57" height="38.7"/>
	<rect id="XMLID_719_" x="13.1" y="79" fill="#FFF9DD" width="48.6" height="31"/>
	<g id="XMLID_715_">
		<rect id="XMLID_718_" x="29.5" y="83.3" fill="#3D0925" width="16" height="3.1"/>
		<rect id="XMLID_717_" x="25.7" y="88.6" fill="#3D0925" width="23.6" height="3.1"/>
		<rect id="XMLID_716_" x="29.5" y="93.9" fill="#3D0925" width="16" height="3.1"/>
	</g>
	<polygon id="XMLID_714_" fill="#E7552C" points="58.5,107.6 54.9,109.5 51.2,107.6 45.4,118.3 48.9,117.7 50.3,121 54.9,112.6 
		59.4,121 60.8,117.7 64.3,118.3 	"/>
	<polygon id="XMLID_713_" opacity="0.28" fill="#E7552C" points="58.5,107.6 54.9,109.5 51.2,107.6 45.4,118.3 48.9,117.7 50.3,121 
		54.9,112.6 59.4,121 60.8,117.7 64.3,118.3 	"/>
	<circle id="XMLID_712_" fill="#E7552C" cx="54.9" cy="105.6" r="6.6"/>
	<circle id="XMLID_711_" fill="#FACA81" cx="54.9" cy="105.6" r="3.7"/>
</g>
<g id="XMLID_685_">
	<text id="XMLID_42_" transform="matrix(1 0 0 1 148.3452 78.9971)"><tspan x="0" y="0" font-family="'Yellowtail'" font-size="37.2219px">Haz el</tspan><tspan x="-47.7" y="27.4" font-family="'Yellowtail'" font-size="37.2219px">Curso Gratuito</tspan></text>
</g>
<text id="XMLID_28_" transform="matrix(1 0 0 1 182.2661 32.2301)" font-family="'Yellowtail'" font-size="37.2219px">รณ</text>
</svg>
