<?xml version="1.0" encoding="utf-8"?>
<!-- Generator: Adobe Illustrator 19.0.0, SVG Export Plug-In . SVG Version: 6.00 Build 0)  -->
<svg version="1.1" id="Capa_1" xmlns="http://www.w3.org/2000/svg" xmlns:xlink="http://www.w3.org/1999/xlink" x="0px" y="0px"
	 viewBox="0 0 300 131.6" enable-background="new 0 0 300 131.6" xml:space="preserve">
<g id="XMLID_168_">
	<g id="XMLID_413_">
		<polygon id="XMLID_484_" fill="#EAEEEC" points="193.2,5.2 193.2,5.2 193.2,122.2 226.5,122.2 252.1,122.2 252.1,104.2 
			270.2,104.2 270.2,5.2 		"/>
		<polygon id="XMLID_483_" fill="#F2FFF7" points="252.1,122.2 261.1,113.2 270.2,104.2 252.1,104.2 		"/>
		<path id="XMLID_477_" fill="#91C7A7" d="M187.4,5.2c-6,0-10.9,4.9-10.9,10.9v95.1c0,6,4.9,10.9,10.9,10.9h5.8V5.2H187.4z
			 M184.8,113.3c-2.3,0-4.1-1.8-4.1-4.1s1.8-4.1,4.1-4.1c2.3,0,4.1,1.8,4.1,4.1S187.1,113.3,184.8,113.3z M184.8,83
			c-2.3,0-4.1-1.8-4.1-4.1c0-2.3,1.8-4.1,4.1-4.1c2.3,0,4.1,1.8,4.1,4.1C189,81.1,187.1,83,184.8,83z M184.8,52.7
			c-2.3,0-4.1-1.8-4.1-4.1c0-2.3,1.8-4.1,4.1-4.1c2.3,0,4.1,1.8,4.1,4.1C189,50.8,187.1,52.7,184.8,52.7z M184.8,22.4
			c-2.3,0-4.1-1.8-4.1-4.1c0-2.3,1.8-4.1,4.1-4.1c2.3,0,4.1,1.8,4.1,4.1C189,20.6,187.1,22.4,184.8,22.4z"/>
		<g id="XMLID_472_">
			<path id="XMLID_474_" fill="#C2C6C5" d="M186.7,18.5c0,1.5-1.2,2.8-2.8,2.8h-8.7c-1.5,0-2.8-1.2-2.8-2.8l0,0
				c0-1.5,1.2-2.8,2.8-2.8h8.7C185.4,15.7,186.7,16.9,186.7,18.5L186.7,18.5z"/>
			<path id="XMLID_473_" opacity="0.28" fill="#C2C6C5" d="M186.7,18.5L186.7,18.5c0,1.5-1.2,2.8-2.8,2.8h-8.7
				c-1.5,0-2.8-1.2-2.8-2.8l0,0H186.7z"/>
		</g>
		<g id="XMLID_469_">
			<path id="XMLID_471_" fill="#C2C6C5" d="M186.7,48.7c0,1.5-1.2,2.8-2.8,2.8h-8.7c-1.5,0-2.8-1.2-2.8-2.8l0,0
				c0-1.5,1.2-2.8,2.8-2.8h8.7C185.4,45.9,186.7,47.1,186.7,48.7L186.7,48.7z"/>
			<path id="XMLID_470_" opacity="0.28" fill="#C2C6C5" d="M186.7,48.7L186.7,48.7c0,1.5-1.2,2.8-2.8,2.8h-8.7
				c-1.5,0-2.8-1.2-2.8-2.8l0,0H186.7z"/>
		</g>
		<g id="XMLID_466_">
			<path id="XMLID_468_" fill="#C2C6C5" d="M186.7,79.2c0,1.5-1.2,2.8-2.8,2.8h-8.7c-1.5,0-2.8-1.2-2.8-2.8l0,0
				c0-1.5,1.2-2.8,2.8-2.8h8.7C185.4,76.5,186.7,77.7,186.7,79.2L186.7,79.2z"/>
			<path id="XMLID_467_" opacity="0.28" fill="#C2C6C5" d="M186.7,79.2L186.7,79.2c0,1.5-1.2,2.8-2.8,2.8h-8.7
				c-1.5,0-2.8-1.2-2.8-2.8l0,0H186.7z"/>
		</g>
		<g id="XMLID_463_">
			<path id="XMLID_465_" fill="#C2C6C5" d="M186.7,109.2c0,1.5-1.2,2.8-2.8,2.8h-8.7c-1.5,0-2.8-1.2-2.8-2.8l0,0
				c0-1.5,1.2-2.8,2.8-2.8h8.7C185.4,106.4,186.7,107.7,186.7,109.2L186.7,109.2z"/>
			<path id="XMLID_464_" opacity="0.28" fill="#C2C6C5" d="M186.7,109.2L186.7,109.2c0,1.5-1.2,2.8-2.8,2.8h-8.7
				c-1.5,0-2.8-1.2-2.8-2.8l0,0H186.7z"/>
		</g>
		<rect id="XMLID_421_" x="199.7" y="21.2" fill="#888889" width="63.9" height="2.8"/>
		<rect id="XMLID_420_" x="199.7" y="31" fill="#888889" width="63.9" height="2.8"/>
		<rect id="XMLID_419_" x="199.7" y="40.8" fill="#888889" width="63.9" height="2.8"/>
		<rect id="XMLID_418_" x="199.7" y="50.6" fill="#888889" width="63.9" height="2.8"/>
		<rect id="XMLID_417_" x="199.7" y="60.4" fill="#888889" width="63.9" height="2.8"/>
		<rect id="XMLID_416_" x="199.7" y="70.2" fill="#888889" width="63.9" height="2.8"/>
		<rect id="XMLID_415_" x="199.7" y="80" fill="#888889" width="63.9" height="2.8"/>
		<rect id="XMLID_414_" x="199.7" y="89.7" fill="#888889" width="63.9" height="2.8"/>
	</g>
	<polygon id="XMLID_412_" opacity="0.11" fill="#1C1C1B" points="270.2,64.8 256.5,51.4 247.5,49.5 243.1,48.6 243.1,48.6 
		243.1,48.6 243.1,48.6 244,53.1 245.8,62.1 270.2,87 	"/>
	<g id="XMLID_399_">
		<g id="XMLID_407_">
			
				<rect id="XMLID_411_" x="264" y="45.2" transform="matrix(0.7071 -0.7071 0.7071 0.7071 28.9402 212.9531)" fill="#FF4234" width="15.1" height="52.6"/>
			
				<rect id="XMLID_410_" x="275.5" y="81.7" transform="matrix(0.7071 -0.7071 0.7071 0.7071 24.1776 224.4352)" fill="#FFED9B" width="15.1" height="2.7"/>
			<polygon id="XMLID_409_" fill="#FFED9B" points="247.6,58.3 258.3,47.6 249.3,45.8 245.8,49.3 			"/>
			<polygon id="XMLID_408_" fill="#1C1C1B" points="245.8,49.3 249.3,45.8 244.8,44.9 			"/>
		</g>
		<g id="XMLID_400_" opacity="0.28">
			
				<rect id="XMLID_406_" x="280.6" y="85.4" transform="matrix(0.7071 -0.7071 0.7071 0.7071 19.8391 227.3629)" fill="#FF4234" width="7.6" height="8.7"/>
			
				<rect id="XMLID_404_" x="244.2" y="66.4" transform="matrix(-0.7071 -0.7071 0.7071 -0.7071 402.4681 307.0461)" fill="#FF4234" width="41.2" height="7.6"/>
			
				<rect id="XMLID_403_" x="276.6" y="84.3" transform="matrix(0.7071 -0.7071 0.7071 0.7071 21.5117 223.3255)" fill="#FFED9B" width="7.6" height="2.7"/>
			<polygon id="XMLID_402_" fill="#FFED9B" points="252.9,52.9 247.6,58.3 245.8,49.3 247.5,47.5 			"/>
			<polygon id="XMLID_401_" fill="#1C1C1B" points="245.8,49.3 244.8,44.8 247.5,47.5 			"/>
		</g>
	</g>
</g>
<text id="XMLID_659_" transform="matrix(1 0 0 1 -0.3364 65.1949)"><tspan x="0" y="0" font-family="'Yellowtail'" font-size="40.7063px">Realiza el </tspan><tspan x="23.5" y="29.9" font-family="'Yellowtail'" font-size="40.7063px">examen</tspan></text>
</svg>
