<?xml version="1.0" encoding="utf-8"?>
<!-- Generator: Adobe Illustrator 19.0.0, SVG Export Plug-In . SVG Version: 6.00 Build 0)  -->
<svg version="1.1" id="Capa_1" xmlns="http://www.w3.org/2000/svg" xmlns:xlink="http://www.w3.org/1999/xlink" x="0px" y="0px"
	 viewBox="0 0 300 300" enable-background="new 0 0 300 300" xml:space="preserve">
<g id="XMLID_193_">
	<g id="XMLID_655_">
		<rect id="XMLID_656_" x="58.3" y="207.7" fill="#E2E2E2" width="174.6" height="9.7"/>
	</g>
	<g id="XMLID_653_">
		<polygon id="XMLID_654_" fill="#EEEEEE" points="227.6,200.4 63.6,200.4 58.3,207.7 232.9,207.7 		"/>
	</g>
	<g id="XMLID_603_">
		<g id="XMLID_612_">
			<g id="XMLID_651_">
				<path id="XMLID_652_" fill="#FFD352" d="M189.2,156.4c0,13.4-10.8,24.2-24.2,24.2l0,0c-13.4,0-24.2-10.8-24.2-24.2v-39.2
					c0-13.4,10.8-24.2,24.2-24.2l0,0c13.4,0,24.2,10.8,24.2,24.2V156.4z"/>
			</g>
			<g id="XMLID_636_">
				<rect id="XMLID_642_" x="154.1" y="138" fill="#E2E2E2" width="22" height="25.7"/>
			</g>
			<g id="XMLID_634_">
				<rect id="XMLID_635_" x="148" y="154" fill="#004F82" width="34.1" height="38.1"/>
			</g>
			<g id="XMLID_632_">
				<path id="XMLID_633_" fill="#EEEEEE" d="M187,117.8c-1.7-2.2-4.3,0.6-4.3,0.6c0-21.3-17.7-18.7-17.7-18.7s-17.7-2.6-17.7,18.7
					c0,0-2.5-2.9-4.3-0.6c-1.7,2.2,0.6,15.4,4.3,12.7c0,0,3.4,18.2,17.7,18.2c14.3,0,17.7-18.2,17.7-18.2
					C186.4,133.2,188.8,120,187,117.8z"/>
			</g>
			<g id="XMLID_630_">
				<path id="XMLID_631_" fill="#272447" d="M180.1,150.8c0,0-4.6,25.2-15,25.2c-10.4,0-15-25.2-15-25.2c-7.9,0-18.1,6.4-18.1,6.4
					l-11.7,44h44.9h44.9l-10.2-42.5C199.7,158.7,188.9,150.8,180.1,150.8z"/>
			</g>
			<g id="XMLID_628_">
				<path id="XMLID_629_" fill="#00619F" d="M165.1,154.3c0,0-7.1-1.9-15.1,8.9l-1.9-12c0,0,3.3-5.5,5.7-5.4
					C153.7,145.7,160.6,152.4,165.1,154.3z"/>
			</g>
			<g id="XMLID_626_">
				<path id="XMLID_627_" fill="#00619F" d="M165.1,154.3c0,0,7.1-1.9,15.1,8.9l1.9-12c0,0-3.3-5.5-5.7-5.4
					C176.4,145.7,169.6,152.4,165.1,154.3z"/>
			</g>
			<g id="XMLID_624_">
				<path id="XMLID_625_" fill="#FFD352" d="M177.3,106.6c0,0-21.4,16.5-29.9,11.8c0,0-5.3-20.6,19-20.6c15,0,18.6,16.2,16.4,20.6
					C182.7,118.4,177.6,113.6,177.3,106.6z"/>
			</g>
			<g id="XMLID_613_">
				<g id="XMLID_622_">
					<path id="XMLID_623_" fill="#101F4B" d="M140.6,120.2c-0.2-0.6-5-15.3,2.2-25.3c4.3-5.9,11.7-8.9,22.2-8.9
						c10.5,0,17.9,3,22.2,8.9c7.2,10.1,2.4,24.7,2.2,25.3l-2.9-1c0-0.1,4.5-13.8-1.8-22.6c-3.7-5.1-10.3-7.7-19.7-7.7
						c-9.4,0-16.1,2.6-19.7,7.7c-6.3,8.8-1.9,22.5-1.8,22.6L140.6,120.2z"/>
				</g>
				<g id="XMLID_620_">
					<path id="XMLID_621_" fill="#101F4B" d="M176.7,140.1c-0.9,0-1.8,0-2.6-0.1c-0.7,0-1.4-0.1-2-0.1v-1.5c0.6,0,1.3,0,2.1,0.1
						c3.6,0.1,8.1,0.3,10.6-2.2c1.4-1.4,2.1-3.4,2.1-6.1h1.5c0,3.2-0.9,5.6-2.5,7.2C183.5,139.7,179.9,140.1,176.7,140.1z"/>
				</g>
				<g id="XMLID_618_">
					<path id="XMLID_619_" fill="#00C6D2" d="M147.2,131.4c0,0.4-0.3,0.8-0.7,0.8l-7.5,0.6c-0.4,0-0.8-0.3-0.8-0.7l-1.3-14.5
						c0-0.4,0.3-0.8,0.7-0.8l7.5-0.6c0.4,0,0.8,0.3,0.8,0.7L147.2,131.4z"/>
				</g>
				<g id="XMLID_616_">
					<path id="XMLID_617_" fill="#00C6D2" d="M182.9,131.4c0,0.4,0.3,0.8,0.7,0.8l7.5,0.6c0.4,0,0.8-0.3,0.8-0.7l1.3-14.5
						c0-0.4-0.3-0.8-0.7-0.8l-7.5-0.6c-0.4,0-0.8,0.3-0.8,0.7L182.9,131.4z"/>
				</g>
				<g id="XMLID_614_">
					<path id="XMLID_615_" fill="#00C6D2" d="M173.6,140.3c0,0.4-0.3,0.8-0.8,0.8h-3.6c-0.4,0-0.8-0.3-0.8-0.8V138
						c0-0.4,0.3-0.8,0.8-0.8h3.6c0.4,0,0.8,0.3,0.8,0.8V140.3z"/>
				</g>
			</g>
		</g>
		<g id="XMLID_604_">
			<g id="XMLID_609_">
				<polygon id="XMLID_610_" fill="#EEEEEE" points="166.9,199.3 149.1,199.3 156.9,205.5 				"/>
			</g>
			<g id="XMLID_607_">
				<polygon id="XMLID_608_" fill="#2D5F8F" points="68.9,153 151.7,153 157.1,206.6 76.9,206.6 				"/>
			</g>
			<g id="XMLID_605_">
				<path id="XMLID_606_" fill="#101F4B" d="M157.2,206.7l10.7-4.6c0,0,1.3-2.8-1-2.8l-10.1,4.9L157.2,206.7z"/>
			</g>
		</g>
	</g>
	<g id="XMLID_511_">
		<g id="XMLID_577_">
			<circle id="XMLID_602_" fill="#002B58" cx="163" cy="35.8" r="26.8"/>
		</g>
		<g id="XMLID_575_">
			<circle id="XMLID_576_" fill="#EEEEEE" cx="163" cy="35.8" r="23.9"/>
		</g>
		<g id="XMLID_542_">
			<g id="XMLID_569_">
				<path id="XMLID_573_" d="M161.5,19h-0.6v-3.9l-0.9,0v-0.4l1.5-0.2V19z"/>
				<path id="XMLID_571_" d="M166.3,19h-2.9v-0.4l1.5-1.6c0.3-0.3,0.4-0.5,0.5-0.7c0.1-0.2,0.1-0.4,0.1-0.5c0-0.2-0.1-0.4-0.2-0.6
					c-0.1-0.2-0.3-0.2-0.5-0.2c-0.3,0-0.5,0.1-0.7,0.2c-0.1,0.2-0.2,0.4-0.2,0.7h-0.6l0,0c0-0.4,0.1-0.7,0.4-1
					c0.3-0.3,0.6-0.4,1.1-0.4c0.4,0,0.7,0.1,1,0.4c0.2,0.2,0.4,0.5,0.4,0.9c0,0.2-0.1,0.5-0.2,0.7c-0.1,0.2-0.3,0.5-0.6,0.8
					l-1.2,1.3l0,0h2.2V19z"/>
			</g>
			<g id="XMLID_560_">
				<path id="XMLID_564_" d="M163.3,51.8c0.2,0,0.3,0,0.5,0.1c0.2,0,0.3,0.1,0.4,0.1l-0.1,0.5c-0.1-0.1-0.2-0.1-0.3-0.1
					s-0.2,0-0.4,0c-0.3,0-0.6,0.1-0.8,0.4c-0.2,0.3-0.3,0.6-0.3,1v0.1c0.1-0.1,0.3-0.2,0.5-0.3c0.2-0.1,0.4-0.1,0.5-0.1
					c0.4,0,0.7,0.1,1,0.4c0.2,0.3,0.4,0.6,0.4,1.1c0,0.5-0.1,0.8-0.4,1.1c-0.3,0.3-0.6,0.4-1,0.4c-0.4,0-0.8-0.2-1.1-0.5
					c-0.3-0.3-0.4-0.8-0.4-1.4v-0.9c0-0.6,0.2-1,0.5-1.4C162.4,51.9,162.8,51.8,163.3,51.8z M163.1,53.8c-0.2,0-0.4,0-0.5,0.1
					c-0.1,0.1-0.3,0.2-0.3,0.3v0.4c0,0.4,0.1,0.7,0.3,1c0.2,0.2,0.4,0.3,0.7,0.3c0.3,0,0.4-0.1,0.6-0.3c0.1-0.2,0.2-0.5,0.2-0.8
					c0-0.3-0.1-0.5-0.2-0.7C163.6,53.9,163.4,53.8,163.1,53.8z"/>
			</g>
			<g id="XMLID_557_">
				<path id="XMLID_558_" d="M181.1,35.1h0.5c0.3,0,0.5-0.1,0.6-0.2c0.1-0.1,0.2-0.3,0.2-0.6c0-0.3-0.1-0.5-0.2-0.6
					c-0.1-0.1-0.3-0.2-0.6-0.2c-0.2,0-0.4,0.1-0.6,0.2c-0.1,0.1-0.2,0.3-0.2,0.6h-0.6l0,0c0-0.3,0.1-0.6,0.4-0.9
					c0.3-0.2,0.6-0.4,1-0.4c0.4,0,0.7,0.1,1,0.3c0.2,0.2,0.4,0.5,0.4,0.9c0,0.2-0.1,0.4-0.2,0.6c-0.1,0.2-0.3,0.3-0.5,0.4
					c0.3,0.1,0.5,0.2,0.6,0.4c0.1,0.2,0.2,0.4,0.2,0.6c0,0.4-0.1,0.7-0.4,1c-0.3,0.2-0.6,0.4-1,0.4c-0.4,0-0.8-0.1-1-0.3
					c-0.3-0.2-0.4-0.5-0.4-0.9l0,0h0.6c0,0.2,0.1,0.4,0.2,0.6c0.1,0.1,0.3,0.2,0.6,0.2c0.3,0,0.5-0.1,0.6-0.2
					c0.1-0.1,0.2-0.3,0.2-0.6c0-0.3-0.1-0.5-0.2-0.6c-0.1-0.1-0.3-0.2-0.6-0.2h-0.5V35.1z"/>
			</g>
			<g id="XMLID_552_">
				<path id="XMLID_554_" d="M144.1,37.3c0.3,0,0.5-0.1,0.7-0.3c0.2-0.2,0.3-0.6,0.3-1v-0.2c-0.1,0.1-0.2,0.3-0.4,0.3
					c-0.2,0.1-0.3,0.1-0.5,0.1c-0.4,0-0.8-0.1-1-0.4c-0.3-0.3-0.4-0.6-0.4-1.1c0-0.5,0.1-0.8,0.4-1.1c0.3-0.3,0.6-0.4,1-0.4
					c0.5,0,0.8,0.1,1.1,0.4c0.3,0.3,0.4,0.7,0.4,1.3v1.1c0,0.6-0.1,1-0.4,1.4c-0.3,0.3-0.7,0.5-1.1,0.5c-0.2,0-0.3,0-0.5,0
					c-0.2,0-0.3-0.1-0.4-0.1l0.1-0.5c0.1,0.1,0.2,0.1,0.4,0.1C143.8,37.3,144,37.3,144.1,37.3z M144.2,35.7c0.2,0,0.4,0,0.6-0.1
					c0.2-0.1,0.3-0.2,0.3-0.4v-0.4c0-0.4-0.1-0.7-0.2-0.9c-0.2-0.2-0.4-0.3-0.7-0.3c-0.2,0-0.4,0.1-0.6,0.3
					c-0.2,0.2-0.2,0.5-0.2,0.8c0,0.3,0.1,0.6,0.2,0.8C143.8,35.6,144,35.7,144.2,35.7z"/>
			</g>
		</g>
		<g id="XMLID_540_">
			<path id="XMLID_541_" fill="#333333" d="M145.7,46.7c-0.2,0-0.4-0.1-0.5-0.3c-0.2-0.3-0.1-0.6,0.2-0.7l17.3-10.3
				c0.2-0.1,0.6-0.1,0.7,0.2c0.2,0.3,0.1,0.6-0.2,0.7L146,46.6C145.9,46.6,145.8,46.7,145.7,46.7z"/>
		</g>
		<g id="XMLID_519_">
			<path id="XMLID_539_" fill="#333333" d="M172.4,40.6c-0.1,0-0.1,0-0.2,0l-9.5-4.2c-0.3-0.1-0.4-0.4-0.3-0.7
				c0.1-0.3,0.4-0.4,0.7-0.3l9.5,4.2c0.3,0.1,0.4,0.4,0.3,0.7C172.8,40.5,172.6,40.6,172.4,40.6z"/>
		</g>
		<g id="XMLID_512_">
			<circle id="XMLID_513_" fill="#959595" cx="163" cy="35.8" r="1.5"/>
		</g>
	</g>
	<g id="XMLID_195_">
		<g id="XMLID_509_">
			<rect id="XMLID_510_" x="68.9" y="83" fill="#EEEEEE" width="33.1" height="39.3"/>
		</g>
		<g id="XMLID_507_">
			<rect id="XMLID_508_" x="72.9" y="87.6" fill="#AFAFAF" width="25.1" height="1.2"/>
		</g>
		<g id="XMLID_504_">
			<rect id="XMLID_506_" x="72.9" y="90.6" fill="#AFAFAF" width="25.1" height="1.2"/>
		</g>
		<g id="XMLID_501_">
			<rect id="XMLID_502_" x="72.9" y="93.6" fill="#AFAFAF" width="25.1" height="1.2"/>
		</g>
		<g id="XMLID_499_">
			<rect id="XMLID_500_" x="72.9" y="96.6" fill="#AFAFAF" width="25.1" height="1.2"/>
		</g>
		<g id="XMLID_497_">
			<rect id="XMLID_498_" x="72.9" y="99.7" fill="#AFAFAF" width="25.1" height="1.2"/>
		</g>
		<g id="XMLID_495_">
			<rect id="XMLID_496_" x="72.9" y="102.7" fill="#AFAFAF" width="25.1" height="1.2"/>
		</g>
		<g id="XMLID_493_">
			<rect id="XMLID_494_" x="72.9" y="105.7" fill="#AFAFAF" width="25.1" height="1.2"/>
		</g>
		<g id="XMLID_491_">
			<rect id="XMLID_492_" x="72.9" y="108.7" fill="#AFAFAF" width="25.1" height="1.2"/>
		</g>
		<g id="XMLID_488_">
			<rect id="XMLID_490_" x="72.9" y="111.7" fill="#AFAFAF" width="25.1" height="1.2"/>
		</g>
		<g id="XMLID_197_">
			<rect id="XMLID_245_" x="72.9" y="114.7" fill="#AFAFAF" width="13.4" height="1.2"/>
		</g>
	</g>
</g>
<text id="XMLID_53_" transform="matrix(1 0 0 1 55.8984 276.6963)" font-family="'Yellowtail'" font-size="51.2063px" letter-spacing="-1">Regístrate</text>
</svg>
