<?xml version="1.0" encoding="utf-8"?>
<!-- Generator: Adobe Illustrator 19.0.0, SVG Export Plug-In . SVG Version: 6.00 Build 0)  -->
<svg version="1.2" baseProfile="tiny" id="Capa_1" xmlns="http://www.w3.org/2000/svg" xmlns:xlink="http://www.w3.org/1999/xlink"
	 x="0px" y="0px" viewBox="0 0 187.7 94.1" xml:space="preserve">
<path id="XMLID_1179_" fill-rule="evenodd" fill="#F7BE89" d="M187.7,25.8C187.7,25.8,187.7,25.8,187.7,25.8
	c-6.6-4.6-17.5-12.2-22.6-16.9c-5.1-4.8-8.5-3.3-21.6-4.3C130.5,3.5,129.8,7,121,8.6c-8.8,1.7-8.8,6.5,0.5,7.3
	c9.3,0.8,11.8-0.9,11.8-0.9s2.5,3.4,7.9,3.4c5.3,0,7.9-0.3,7.9-0.3s1.7,6.7,4.5,9c2.8,2.2,5.6,3.4,5.6,3.4s-1.4,5.6,1.1,8.7
	c2.5,3.1,3.9,6.5,3.9,6.5s-1.4,7.3-4.2,11c-2.8,3.7-9.8,3.6-31.3,2.6c-21.5-1-21.1,2.9-20.8,6.3c0.2,3.5,8.9,3.5,15.3,6
	c6.5,2.5,21.1,5.1,28.1,8.7c7,3.7,23.9,7.6,30.6,9.9c6.8,2.3,3.9,1.6,5.7,2.8V25.8z"/>
<path id="XMLID_1178_" fill-rule="evenodd" fill="#E3AF7F" d="M109,61.5c-1.3,1.2-1.2,2.7-1.1,4.1c0.2,3.5,8.9,3.5,15.3,6
	c6.5,2.5,21.1,5.1,28.1,8.7c7,3.7,23.9,9,30.6,11.3c6.8,2.3,3.9,1.6,5.7,2.8v-8.6c-3.2-2.1-6.1-3.6-8.7-4.2
	c-13.4-3.3-30-3.9-37.3-7.2C135.1,71.5,127.3,61.5,109,61.5z"/>
<path id="XMLID_1177_" fill-rule="evenodd" fill="#E3AF7F" d="M151.7,23.6c-5.9,0.8-15.1,1.3-18.9-0.3c-3.8-1.6-1-4.6,2.1-7.4
	c1.3,1,3.7,2.3,7,2.3c5.7,0,8.4-0.3,8.4-0.3S149.2,20.9,151.7,23.6z"/>
<path id="XMLID_1176_" fill-rule="evenodd" fill="#E3AF7F" d="M115.4,14.1c1.1,0.9,3.1,1.6,6.2,1.9c9.3,0.8,11.4,0.2,11.4,0.2
	s3,2.3,8.3,2.3c5.3,0,7.9-0.3,7.9-0.3s1.7,6.7,4.5,9c2.8,2.2,5.6,3.4,5.6,3.4s-1.4,5.6,1.1,8.7c2.5,3.1,3.9,6.5,3.9,6.5
	s-1.2,6.5-3.7,10.3c4-3.1,7.4-7.5,7.5-10.9c0.2-4.5-2.4-0.4-4.5-3.5c-2-3.1,1.4-4.5-1.4-11c-2.9-6.5-4.1-3.1-8.4-5.9
	c-4.3-2.9-3.5-5.3-3.5-7.5s-0.8-2.2-4.9-1.6c-4.1,0.6-9.4,1.8-10.6-0.6c-1.2-2.4-2-3.7-3.1-2c-1,1.6-8.2,2.4-13.5,1.6
	C117.5,14.4,116.4,14.2,115.4,14.1z"/>
<path id="XMLID_1175_" fill-rule="evenodd" fill="#FCD9B8" d="M108.2,62.6c-0.4,0.9-0.4,2-0.3,3c0.2,2.9,6.2,3.4,12,4.9
	c1.4-3.3,1.3-6.3-0.8-6.9C117.2,63.1,112.6,62.5,108.2,62.6z"/>
<path id="XMLID_1174_" fill-rule="evenodd" fill="#F7BE89" d="M0.7,25.8C0.8,25.8,0.8,25.8,0.7,25.8c6.6-4.6,17.5-12.2,22.6-16.9
	c5.1-4.8,8.5-3.3,21.6-4.3C58,3.5,58.7,7,67.5,8.6c8.8,1.7,8.8,6.5-0.5,7.3c-9.3,0.8-11.8-0.9-11.8-0.9s-2.5,3.4-7.9,3.4
	c-5.3,0-7.9-0.3-7.9-0.3s-1.7,6.7-4.5,9c-2.8,2.2-5.6,3.4-5.6,3.4s1.4,5.6-1.1,8.7c-2.5,3.1-3.9,6.5-3.9,6.5s1.4,7.3,4.2,11
	c2.8,3.7,9.8,3.6,31.3,2.6c21.5-1,21.1,2.9,20.8,6.3c-0.2,3.5-8.9,3.5-15.3,6c-6.5,2.5-21.1,5.1-28.1,8.7c-7,3.7-23.9,9.3-30.6,11.6
	c-6.8,2.3-3.9,1.6-5.7,2.8V25.8z"/>
<path id="XMLID_1173_" fill-rule="evenodd" fill="#E3AF7F" d="M79.5,61.5c1.3,1.2,1.2,2.7,1.1,4.1c-0.2,3.5-8.9,3.5-15.3,6
	c-6.5,2.5-21.1,5.1-28.1,8.7c-7,3.7-23.9,10.1-30.6,12.4c-6.8,2.3-3.9,1.6-5.7,2.8v-6.3c3.2-2.1,6.1-3.6,8.7-4.2
	c13.4-3.3,30-7.2,37.3-10.5C53.4,71.5,61.2,61.5,79.5,61.5z"/>
<path id="XMLID_1172_" fill-rule="evenodd" fill="#E3AF7F" d="M36.7,23.5c6.1,0.8,15.1,1.3,19-0.3c3.9-1.6,1-4.7-2.2-7.7
	c-1.4,1.1-2.5,2.3-7.2,2.3s-7.5-0.4-7.5-0.4S38,20.7,36.7,23.5z"/>
<path id="XMLID_1171_" fill-rule="evenodd" fill="#E3AF7F" d="M73.1,14.1C72.1,15,70,15.7,67,16c-9.3,0.8-11.5,0-11.5,0
	s-2.8,2.5-8.2,2.5c-5.3,0-7.9-0.3-7.9-0.3s-1.7,6.7-4.5,9c-2.8,2.2-5.6,3.4-5.6,3.4s1.4,5.6-1.1,8.7c-2.5,3.1-3.9,6.5-3.9,6.5
	s1.2,6.5,3.7,10.3c-4-3.1-7.4-7.5-7.5-10.9c-0.2-4.5,2.4-0.4,4.5-3.5c2-3.1-1.4-4.5,1.4-11c2.9-6.5,4.1-3.1,8.4-5.9
	c4.3-2.9,3.5-5.3,3.5-7.5c0-2.2,0.8-2.2,4.9-1.6c4.1,0.6,9.4,1.8,10.6-0.6c1.2-2.4,2-3.7,3.1-2c1,1.6,8.2,2.4,13.5,1.6
	C71,14.4,72.1,14.2,73.1,14.1z"/>
<path id="XMLID_1170_" fill-rule="evenodd" fill="#FCD9B8" d="M80.3,62.6c0.4,0.9,0.4,2,0.3,3c-0.2,2.9-6.2,3.4-12,4.9
	c-1.4-3.3-1.3-6.3,0.8-6.9C71.2,63.1,75.9,62.5,80.3,62.6z"/>
<path id="XMLID_1169_" fill-rule="evenodd" fill="#FCD9B8" d="M137.9,9.6c-0.4,0.1-0.8,0.2-1.2,0.3c-3.4,0.7-5.5,1.8-6.2,2.9
	C136.3,11.9,137.8,10.8,137.9,9.6z"/>
<path id="XMLID_1168_" fill-rule="evenodd" fill="#FCD9B8" d="M67.1,8.6c0.4,0.1,0.8,0.2,1.2,0.3c3.4,0.7,5.5,1.8,6.2,2.9
	C68.7,10.9,67.1,9.8,67.1,8.6z"/>
<g id="XMLID_1181_">
	<circle id="XMLID_1167_" fill-rule="evenodd" fill="#808185" cx="134.3" cy="36.8" r="1.5"/>
	<path id="XMLID_1166_" fill-rule="evenodd" fill="#495153" d="M50.8,50.1V23.5c0-5,4.1-9.1,9.1-9.1h68.6c5,0,9.1,4.1,9.1,9.1v26.6
		c0,5-4.1,9.1-9.1,9.1H59.9C54.9,59.2,50.8,55.1,50.8,50.1z"/>
	<rect id="XMLID_1165_" x="58.4" y="16.5" fill-rule="evenodd" fill="#F8F9E8" width="62.7" height="40.6"/>
	<path id="XMLID_1164_" fill-rule="evenodd" fill="#808185" d="M124.1,39.6v-5.7c0-1.3,1.1-2.4,2.4-2.4h5.7c1.3,0,2.4,1.1,2.4,2.4
		v5.7c0,1.3-1.1,2.4-2.4,2.4h-5.7C125.2,42,124.1,41,124.1,39.6z"/>
	<circle id="XMLID_1163_" fill-rule="evenodd" fill="#808185" cx="55.3" cy="36.8" r="1.5"/>
	<path id="XMLID_1213_" fill-rule="evenodd" fill="#447293" d="M88.1,52.7v-0.5c0.2,0,0.3-0.1,0.4-0.3c0.2-0.2,0.3-0.5,0.3-0.9
		c0-0.3-0.1-0.6-0.2-0.8c-0.1-0.2-0.3-0.3-0.5-0.3v-0.5c0.4,0,0.7,0.2,1,0.5c0.3,0.3,0.4,0.7,0.4,1.2c0,0.5-0.1,0.9-0.4,1.2
		C88.8,52.5,88.5,52.6,88.1,52.7L88.1,52.7z M90.6,52.7H90v-3.3h0.6V52.7L90.6,52.7z M93.8,52.7h-0.6L92,50.6c0,0-0.1-0.1-0.1-0.2
		c0,0,0-0.1-0.1-0.2v2.4h-0.5v-3.3H92l1.2,1.9c0,0,0.1,0.1,0.2,0.4v-2.3h0.5V52.7L93.8,52.7z M97,51v1.7h-0.3l-0.2-0.4
		c-0.2,0.3-0.5,0.5-0.9,0.5c-0.5,0-0.8-0.2-1-0.5c-0.2-0.3-0.3-0.7-0.3-1.2c0-0.5,0.1-0.9,0.4-1.2c0.2-0.3,0.6-0.5,1-0.5
		c0.3,0,0.6,0.1,0.8,0.3c0.2,0.2,0.3,0.4,0.4,0.7l-0.5,0.1c-0.1-0.4-0.3-0.6-0.7-0.6c-0.2,0-0.4,0.1-0.6,0.3
		C95.1,50.3,95,50.6,95,51c0,0.8,0.3,1.3,0.8,1.3c0.2,0,0.4-0.1,0.5-0.2c0.1-0.1,0.2-0.3,0.2-0.6h-0.7V51H97L97,51z M99.5,52v0.6
		h-0.6V52H99.5L99.5,52z M100.7,52v0.6h-0.6V52H100.7L100.7,52z M101.9,52v0.6h-0.6V52H101.9z M88.1,49.4v0.5c-0.1,0-0.1,0-0.2,0
		h-0.6v2.3h0.5c0.1,0,0.2,0,0.2,0v0.5c-0.1,0-0.2,0-0.3,0h-1.1v-3.3h1.2C88,49.4,88,49.4,88.1,49.4L88.1,49.4z M84.8,51.9v-0.5h0.5
		l-0.5-1.5v-0.6h0.4l1.1,3.3h-0.6l-0.3-0.8H84.8z M80.5,52.7h-0.6l-0.5-1.4h-0.1v-0.5h0.1c0.2,0,0.4,0,0.5-0.1
		c0.1-0.1,0.2-0.2,0.2-0.4c0-0.1-0.1-0.3-0.2-0.4c-0.1-0.1-0.2-0.1-0.4-0.1h-0.1v-0.5h0.1c0.4,0,0.7,0.1,0.9,0.3
		c0.2,0.2,0.3,0.4,0.3,0.7c0,0.4-0.2,0.7-0.6,0.9L80.5,52.7L80.5,52.7z M84.8,49.4v0.6l0,0l-0.5,1.5h0.5v0.5h-0.6l-0.3,0.8h-0.5
		l1.1-3.3H84.8L84.8,49.4z M83.2,52.7h-2.1v-3.3h2.1v0.5h-1.5v0.9h1.2v0.5h-1.2v0.9h1.6V52.7z M79.2,51.3h-0.7v1.4h-0.6v-3.3h1.3
		v0.5h-0.7v1h0.7V51.3z"/>
	<path id="XMLID_1182_" fill-rule="evenodd" fill="#242829" d="M68.6,21h0.5v31.6h-0.5V21L68.6,21z M69.5,21H70v31.6h-0.5V21
		L69.5,21z M70.8,21h0.7v31.6h-0.7V21L70.8,21z M72.7,21h0.5v31.6h-0.5V21L72.7,21z M73.9,21h1.3v31.6h-1.3V21L73.9,21z M75.7,21
		h0.6v26.9h-0.6V21L75.7,21z M76.9,21h1v26.9h-1V21L76.9,21z M78.7,21H80v26.9h-1.3V21L78.7,21z M80.8,21h0.6v26.9h-0.6V21L80.8,21z
		 M82.1,21h0.3v26.9h-0.3V21L82.1,21z M83,21h0.8v26.9H83V21L83,21z M85.1,21h0.4v26.9h-0.4V21L85.1,21z M86,21h0.8v26.9H86V21
		L86,21z M88.2,21h0.4v26.9h-0.4V21L88.2,21z M89,21h0.4v26.9H89V21L89,21z M89.9,21h0.4v26.9h-0.4V21L89.9,21z M90.7,21h0.4v26.9
		h-0.4V21L90.7,21z M91.5,21h0.4v26.9h-0.4V21L91.5,21z M93.9,21h0.4v26.9h-0.4V21L93.9,21z M95.3,21h1.4v26.9h-1.4V21L95.3,21z
		 M97.2,21H98v26.9h-0.8V21L97.2,21z M98.9,21h0.8v26.9h-0.8V21L98.9,21z M100.3,21h0.4v26.9h-0.4V21L100.3,21z M101.6,21h1.4v26.9
		h-1.4V21L101.6,21z M103.3,21h0.4v26.9h-0.4V21L103.3,21z M104.2,21h1.2v31.6h-1.2V21L104.2,21z M106.4,21h0.4v31.6h-0.4V21
		L106.4,21z M108.2,21h0.4v31.6h-0.4V21L108.2,21z M109.4,21h0.4v31.6h-0.4V21L109.4,21z M110.4,21h0.4v31.6h-0.4V21z"/>
</g>
</svg>
