<?xml version="1.0" encoding="utf-8"?>
<!-- Generator: Adobe Illustrator 19.0.0, SVG Export Plug-In . SVG Version: 6.00 Build 0)  -->
<svg version="1.2" baseProfile="tiny" id="Capa_1" xmlns="http://www.w3.org/2000/svg" xmlns:xlink="http://www.w3.org/1999/xlink"
	 x="0px" y="0px" viewBox="0 0 187.7 165.8" xml:space="preserve">
<g id="XMLID_313_">
	<path id="XMLID_723_" fill-rule="evenodd" fill="#FFD7B7" d="M166.8,81.7c12.7,9.7,15.1,27.9,5.4,40.6
		c-9.7,12.7-25.5,14.1-38.2,4.4c-12.7-9.7-14.1-37.4-4.4-50.1C139.3,63.9,154.2,72,166.8,81.7z"/>
	<path id="XMLID_721_" fill-rule="evenodd" fill="#004E78" d="M42.2,1.7h114.7c4.3,0,7.9,3.5,7.9,7.9v76.8c0,4.3-3.5,7.9-7.9,7.9
		H42.2c-4.3,0-7.9-3.5-7.9-7.9V9.6C34.3,5.3,37.9,1.7,42.2,1.7z"/>
	<g id="XMLID_673_">
		<path id="XMLID_701_" fill-rule="evenodd" fill="#FFFFFF" d="M45.1,88.3V7.7c0-0.2,0.1-0.3,0.2-0.3h107c0.1,0,0.2,0.1,0.2,0.3
			v80.6c0,0.2-0.1,0.3-0.2,0.3h-107C45.2,88.6,45.1,88.4,45.1,88.3z"/>
		<path id="XMLID_698_" fill-rule="evenodd" fill="#5896CC" d="M37.4,58V37.9c0-0.5,0.4-1,1-1l0,0c0.5,0,1,0.4,1,1V58
			c0,0.5-0.4,1-1,1l0,0C37.8,59,37.4,58.5,37.4,58z"/>
		<circle id="XMLID_674_" fill-rule="evenodd" fill="#4899C4" cx="158.3" cy="48" r="3.3"/>
	</g>
	<g id="XMLID_669_">
		<polygon id="XMLID_671_" fill="#287EAD" points="134.2,63.1 144.9,57.2 134.2,51.3 		"/>
		
			<line id="XMLID_670_" fill="none" stroke="#287EAD" stroke-width="1.9199" stroke-miterlimit="22.9256" x1="99.6" y1="57.1" x2="138.9" y2="57.1"/>
	</g>
	<path id="XMLID_666_" fill="#287EAD" d="M75,45.1l1.2-2.2l-4.7-2.5l-1.2,2.2c-1.4-0.5-2.9-0.7-4.4-0.7v4.8c4.2,0,8.1,2.7,9.4,7
		c1.6,5.2-1.4,10.7-6.6,12.3l0,0c-1,0.3-1.9,0.4-2.9,0.4v4.8c0.5,0,1.1,0,1.6-0.1l0.7,2.4l5.1-1.6l-0.7-2.4c1.9-1,3.5-2.3,4.7-3.9
		l2.2,1.2l2.5-4.7L79.8,61c0.6-1.9,0.8-4,0.6-6.1l2.4-0.7l-1.6-5.1l-2.4,0.7C77.9,47.9,76.5,46.3,75,45.1z M65.8,41.9
		c-0.5,0-1.1,0-1.6,0.1l-0.7-2.4l-5.1,1.6l0.7,2.4c-1.9,1-3.5,2.3-4.7,3.9L52,46.2l-2.5,4.7l2.2,1.2c-0.6,1.9-0.8,4-0.6,6.1L48.7,59
		l1.6,5.1l2.4-0.7c1,1.9,2.3,3.5,3.9,4.7l-1.2,2.2l4.7,2.5l1.2-2.2c1.4,0.5,2.9,0.7,4.4,0.7v-4.8c-4.2,0-8.1-2.7-9.4-7
		c-1.6-5.2,1.4-10.7,6.6-12.3c1-0.3,1.9-0.4,2.9-0.4V41.9z"/>
	<polygon id="XMLID_665_" fill-rule="evenodd" fill="#FFD7B7" points="168.5,113.4 175.1,165.2 135.7,165.2 130,121 	"/>
	<polygon id="XMLID_664_" fill-rule="evenodd" fill="#CAEAFC" points="175.1,134.2 178.9,165.2 131.9,165.2 128.9,141.1 	"/>
	<path id="XMLID_663_" fill-rule="evenodd" fill="#DEB99B" d="M167.1,98.4c8.2,0.4,9.5,8.1,5.4,15.8c-4.1,7.7-12,12.6-20.2,12.2
		c-8.2-0.4-11.5-7.1-7.4-14.8C148.9,103.9,158.9,97.9,167.1,98.4z"/>
	<path id="XMLID_662_" fill-rule="evenodd" fill="#DEB99B" d="M170.2,63.4c1.7-0.2,2,1.3,2.2,3l4.7,32.4c0.4,3-1.6,7.8-4.6,8.2l0,0
		c-3,0.4-6.4-1.8-6.7-4.8l-3.7-28.7C161.5,68.6,166.4,63.8,170.2,63.4z"/>
	<path id="XMLID_660_" fill-rule="evenodd" fill="#FFD7B7" d="M170.2,63.4c1.5-0.2,3,0.9,3.1,2.5l4.8,36.3c0.3,2.7-1.4,6.9-4.1,7.3
		l0,0c-2.7,0.3-5.7-1.6-6-4.3l-3.8-32.9C163.7,67.8,166.9,63.8,170.2,63.4z"/>
	<path id="XMLID_658_" fill-rule="evenodd" fill="#FFD7B7" d="M167.9,98.8c7.2,0.8,9.8,8.1,5.8,16.3c-4,8.2-13,14.3-20.2,13.5
		c-7.2-0.8-9.8-8.1-5.8-16.3C151.7,104.1,160.7,98,167.9,98.8z"/>
	<path id="XMLID_657_" fill-rule="evenodd" fill="#FFF2E8" d="M172.4,64.1c0.5,0.4,0.8,1,0.9,1.7l1,7.4c-1.9-0.2-3.2-0.5-5-1.2
		C168.7,68.9,169.3,64.1,172.4,64.1z"/>
	<g id="XMLID_346_">
		<g id="XMLID_351_">
			<g id="XMLID_485_">
				<path id="XMLID_487_" fill-rule="evenodd" fill="#FFD7B7" d="M65.3,129.9l-14.8,35.2H19.2c-1.4-1.2-2.7-2.5-4.1-3.8l15.3-38.1
					L65.3,129.9z"/>
				<polygon id="XMLID_486_" fill-rule="evenodd" fill="#CAEAFC" points="19.4,138.1 8.8,165.2 53.8,165.2 58.4,153.7 				"/>
			</g>
			<g id="XMLID_353_">
				<path id="XMLID_398_" fill-rule="evenodd" fill="#FFD7B7" d="M96.1,102.3l-17,24.2c-2.2,3.1-13.6,12.8-16.9,10.8
					c-3.3-1.9,1.3-12.6,3.6-15.7l13.1-16.4C86.3,95.9,92.8,99.8,96.1,102.3z"/>
				<path id="XMLID_397_" fill-rule="evenodd" fill="#FFD7B7" d="M90.8,54.2L77.1,85.6c-1.1-5.7-9.8-6.6-12.9-1.2
					c-0.3-6-8.4-7.5-12.2-3.2c-1.2-5.5-9.9-6-12.5-0.2l-11.8,26.6c-3.3,7.5-1.9,18-0.4,23.2c4.4,15.5,23.3,16.8,30.5,12.1
					c5.6-3.7,10-5.7,11.8-9.7l33.7-73.7C107.6,50.3,94.1,46.5,90.8,54.2z"/>
				<path id="XMLID_354_" fill-rule="evenodd" fill="#DEB99B" d="M47.5,90.4c0,0,2.2-5.3,4.2-10c0.1,0.3,0.2,0.6,0.3,0.9
					c0.3-0.4,0.7-0.7,1.1-1C50.6,84.9,47.5,90.4,47.5,90.4L47.5,90.4z M77,85.5c-0.1-0.5-0.3-1-0.5-1.4c-2.2,5.3-5.8,14.4-5.8,14.4
					s4.6-9,6.4-12.9C77,85.7,77,85.6,77,85.5L77,85.5z M65.8,82.5c-0.6,0.5-1.2,1.2-1.7,1.9c0-0.4-0.1-0.8-0.2-1.1
					C61.7,88.5,59,95,59,95S63.3,87.3,65.8,82.5z"/>
			</g>
		</g>
		<path id="XMLID_350_" fill-rule="evenodd" fill="#FFF2E8" d="M92.5,54.6l-1.2,2.7c2.1,3.8,5.4,5.1,9.6,4.2l1.2-2.6
			C105.3,52,94.9,48.8,92.5,54.6z"/>
		<path id="XMLID_348_" fill-rule="evenodd" fill="#FFF2E8" d="M94.3,101.4c0.6,0.3,1.2,0.6,1.7,0.9l-5.9,8.3
			C87.8,108,91.7,104,94.3,101.4z"/>
		<polygon id="XMLID_347_" fill-rule="evenodd" fill="#DEB99B" points="84.8,100.3 76.5,118.4 87.1,99.9 		"/>
	</g>
	<path id="XMLID_343_" fill="#287EAD" d="M117,29.6l0.8-1.6l-3.3-1.8l-0.8,1.6c-1-0.3-2-0.5-3.1-0.5v3.6c2.9,0,5.5,1.9,6.4,4.8
		c1.1,3.5-0.9,7.3-4.5,8.4l0,0c-0.7,0.2-1.3,0.3-2,0.3v3.6c0.4,0,0.8,0,1.1-0.1l0.5,1.7l3.6-1.1l-0.5-1.7c1.3-0.7,2.4-1.6,3.3-2.7
		l1.6,0.8l1.8-3.3l-1.6-0.8c0.4-1.3,0.6-2.8,0.4-4.2l1.7-0.5l-1.1-3.6l-1.7,0.5C119,31.6,118.1,30.4,117,29.6z M110.5,27.3
		c-0.4,0-0.8,0-1.1,0.1l-0.5-1.7l-3.6,1.1l0.5,1.7c-1.3,0.7-2.4,1.6-3.3,2.7l-1.6-0.8l-1.8,3.3l1.6,0.8c-0.4,1.3-0.6,2.8-0.4,4.2
		l-1.7,0.5l1.1,3.6l1.7-0.5c0.7,1.3,1.6,2.4,2.7,3.3l-0.8,1.6l3.3,1.8l0.8-1.6c1,0.3,2,0.5,3.1,0.5v-3.6c-2.9,0-5.5-1.9-6.4-4.8
		c-1.1-3.5,0.9-7.3,4.5-8.4c0.7-0.2,1.3-0.3,2-0.3V27.3z"/>
	<path id="XMLID_340_" fill="#287EAD" d="M89.7,21.1l0.8-1.6l-3.3-1.8l-0.8,1.6c-1-0.3-2-0.5-3.1-0.5v3.6c2.9,0,5.5,1.9,6.4,4.8
		c1.1,3.5-0.9,7.3-4.5,8.4l0,0c-0.7,0.2-1.3,0.3-2,0.3v3.6c0.4,0,0.8,0,1.1-0.1l0.5,1.7l3.6-1.1L88,38.3c1.3-0.7,2.4-1.6,3.3-2.7
		l1.6,0.8l1.8-3.3l-1.6-0.8c0.4-1.3,0.6-2.8,0.4-4.2l1.7-0.5l-1.1-3.6l-1.7,0.5C91.7,23.1,90.8,22,89.7,21.1z M83.3,18.9
		c-0.4,0-0.8,0-1.1,0.1l-0.5-1.7L78,18.3l0.5,1.7c-1.3,0.7-2.4,1.6-3.3,2.7l-1.6-0.8l-1.8,3.3l1.6,0.8c-0.4,1.3-0.6,2.8-0.4,4.2
		l-1.7,0.5l1.1,3.6l1.7-0.5c0.7,1.3,1.6,2.4,2.7,3.3L76,38.8l3.3,1.8l0.8-1.6c1,0.3,2,0.5,3.1,0.5v-3.6c-2.9,0-5.5-1.9-6.4-4.8
		c-1.1-3.5,0.9-7.3,4.5-8.4c0.6-0.2,1.3-0.3,2-0.3V18.9z"/>
</g>
</svg>
